<?xml version="1.0" encoding="UTF-8"?> <svg xmlns="http://www.w3.org/2000/svg" id="Logo" viewBox="0 0 643.72 152.24"><defs><style>.cls-1,.cls-2{fill:#db052c;}.cls-1{fill-rule:evenodd;}</style></defs><polygon class="cls-1" points="413.71 42.35 413.71 55.52 439.32 55.52 439.32 103.81 453.22 103.81 453.22 55.52 478.1 55.52 478.1 42.35 413.71 42.35"></polygon><path class="cls-1" d="M718.14,200.35c4.48,4.44,5.7,5.2,10.09,5.2a8.87,8.87,0,0,0,8.78-8.78V142.63H722.37V185.8l-38-39.51c-4.48-4.44-5.86-5.12-10.25-5.12A8.87,8.87,0,0,0,665.3,150v54.14h14.64V160.92Z" transform="translate(-93.54 -100.28)"></path><path class="cls-1" d="M616.28,140.43c-24.37,0-38,6-38,32.93s13.68,32.93,38,32.93,38.05-6,38.05-32.93S640.64,140.43,616.28,140.43Zm0,52c-15,0-22.68-1.1-22.68-19s7.64-19,22.68-19,22.9,1.09,22.9,19S631.32,192.39,616.28,192.39Z" transform="translate(-93.54 -100.28)"></path><polygon class="cls-1" points="304.63 103.81 318.59 103.81 318.53 42.35 304.63 42.35 304.63 103.81"></polygon><path class="cls-1" d="M329.45,155.8h28c8.26,0,9.26,3.74,9.26,7.29s-1.09,7.34-9.21,7.34H329.45Zm38.43,25c8.79-2.18,13.77-8.86,13.77-18,0-12.43-8.21-20.15-21.41-20.15h-44v61.46h13.17v-22h23.41l14.55,22h16.92Z" transform="translate(-93.54 -100.28)"></path><path class="cls-1" d="M469.36,165.49H457.05c-10.58,0-12.74-2-12.74-5.77,0-4.6,7.08-6.38,17.06-6.38a59.91,59.91,0,0,1,26.66,6l7.36-10.37c-10.47-6.33-21.13-8.51-34.2-8.51-20,0-31.68,7.39-31.68,20,0,13.71,11.34,18.37,25.94,18.23H469c13.35,0,15.12,1.54,15.12,6.63s-7.39,8.17-19.27,8.17c-10.45,0-21.21-2.07-30.64-8.37l-7.48,10.63c10,8,22.37,10.73,38,10.73,21.86,0,34.4-8,34.4-21.81,0-12.75-10-19.12-29.84-19.12" transform="translate(-93.54 -100.28)"></path><path class="cls-1" d="M221.1,204.09H238l6.58-11h39.51l6.59,11H307.5l-35.85-59.27a9.17,9.17,0,0,0-14.64,0Zm43.23-45.42,13.17,22.74H251.16l13.17-22.68" transform="translate(-93.54 -100.28)"></path><polygon class="cls-1" points="30.68 54.23 30.68 76.17 62.84 76.17 62.84 54.23 46.76 39.61 30.68 54.23"></polygon><path class="cls-1" d="M187.09,142.86v53.53a7.7,7.7,0,0,1-7.71,7.7H101.25a7.69,7.69,0,0,1-7.7-7.7V142.86a7.68,7.68,0,0,1,2.57-5.74l39-34.88a7.7,7.7,0,0,1,10.26,0l39.08,34.88A7.69,7.69,0,0,1,187.09,142.86ZM140.3,114.29l-35.09,31.45v46.79h70.18V145.74Z" transform="translate(-93.54 -100.28)"></path><path class="cls-2" d="M93.54,252V224.72h5.83v22.19H111V252Z" transform="translate(-93.54 -100.28)"></path><path class="cls-2" d="M113.17,242.12a10.07,10.07,0,0,1,10.26-10.36c5.91,0,9.93,4.42,9.93,10.89v1.15H118.63c.32,2.49,2.33,4.58,5.7,4.58a8.48,8.48,0,0,0,5.3-2l2.3,3.35a12.34,12.34,0,0,1-8.17,2.75C117.72,252.52,113.17,248.46,113.17,242.12Zm10.26-6.23a4.77,4.77,0,0,0-4.89,4.39h9.77A4.58,4.58,0,0,0,123.43,235.89Z" transform="translate(-93.54 -100.28)"></path><path class="cls-2" d="M146.37,242.12c0-6.06,4.4-10.36,10.51-10.36,4.07,0,6.53,1.76,7.84,3.56l-3.4,3.19a4.84,4.84,0,0,0-4.19-2.13c-3.16,0-5.38,2.3-5.38,5.74s2.22,5.77,5.38,5.77a5,5,0,0,0,4.19-2.13l3.4,3.15c-1.31,1.85-3.77,3.61-7.84,3.61C150.77,252.52,146.37,248.22,146.37,242.12Z" transform="translate(-93.54 -100.28)"></path><path class="cls-2" d="M166.86,242.12a10.49,10.49,0,1,1,10.46,10.4A10,10,0,0,1,166.86,242.12Zm15.55,0c0-3.07-1.84-5.74-5.09-5.74s-5,2.67-5,5.74,1.8,5.77,5,5.77S182.41,245.23,182.41,242.12Z" transform="translate(-93.54 -100.28)"></path><path class="cls-2" d="M205.07,252v-12c0-2.74-1.43-3.69-3.65-3.69a5.67,5.67,0,0,0-4.52,2.34V252h-5.21V232.25h5.21v2.58a9.09,9.09,0,0,1,6.94-3.07c4.35,0,6.45,2.45,6.45,6.3v14Z" transform="translate(-93.54 -100.28)"></path><path class="cls-2" d="M216.61,252V236.79h-3.29v-4.54h3.29v-1.07c0-4.21,2.7-6.87,6.69-6.87a7.06,7.06,0,0,1,5.17,1.84l-2,3.07a2.92,2.92,0,0,0-2.18-.82c-1.43,0-2.46.94-2.46,2.78v1.07h4v4.54h-4V252Z" transform="translate(-93.54 -100.28)"></path><path class="cls-2" d="M227.61,242.12a10.49,10.49,0,1,1,10.46,10.4A10,10,0,0,1,227.61,242.12Zm15.56,0c0-3.07-1.85-5.74-5.1-5.74s-5,2.67-5,5.74,1.8,5.77,5,5.77S243.17,245.23,243.17,242.12Z" transform="translate(-93.54 -100.28)"></path><path class="cls-2" d="M252.44,252V232.25h5.21V235a8.54,8.54,0,0,1,6.33-3.19v5.08a6.43,6.43,0,0,0-1.44-.13,6.71,6.71,0,0,0-4.89,2.25V252Z" transform="translate(-93.54 -100.28)"></path><path class="cls-2" d="M268.24,247.11V236.79H265v-4.54h3.28v-5.41h5.26v5.41h4v4.54h-4v8.93c0,1.23.65,2.17,1.8,2.17a2.91,2.91,0,0,0,1.81-.57l1.11,3.93a6.49,6.49,0,0,1-4.35,1.27C270.21,252.52,268.24,250.63,268.24,247.11Z" transform="translate(-93.54 -100.28)"></path><path class="cls-2" d="M305.23,252v-2.54a7.73,7.73,0,0,1-6.12,3c-5,0-8.78-3.77-8.78-10.36s3.73-10.4,8.78-10.4a7.64,7.64,0,0,1,6.12,3V224.72h5.25V252Zm0-6.39v-7a5.68,5.68,0,0,0-4.52-2.26c-2.95,0-5,2.34-5,5.78s2.05,5.73,5,5.73A5.67,5.67,0,0,0,305.23,245.64Z" transform="translate(-93.54 -100.28)"></path><path class="cls-2" d="M329,252v-2.5a9.33,9.33,0,0,1-7,3c-4.35,0-6.41-2.38-6.41-6.23v-14h5.22v12c0,2.74,1.43,3.64,3.65,3.64a5.85,5.85,0,0,0,4.52-2.25V232.25h5.21V252Z" transform="translate(-93.54 -100.28)"></path><path class="cls-2" d="M339.42,252V232.25h5.21V235a8.54,8.54,0,0,1,6.33-3.19v5.08a6.43,6.43,0,0,0-1.44-.13,6.71,6.71,0,0,0-4.89,2.25V252Z" transform="translate(-93.54 -100.28)"></path><path class="cls-2" d="M366.1,252V250a8.19,8.19,0,0,1-6.28,2.54c-3.16,0-6.89-2.13-6.89-6.55,0-4.63,3.73-6.39,6.89-6.39A8.14,8.14,0,0,1,366.1,242v-2.67c0-2-1.72-3.31-4.35-3.31a8.36,8.36,0,0,0-5.79,2.33l-2-3.48a13,13,0,0,1,8.67-3.11c4.51,0,8.66,1.8,8.66,7.49V252Zm0-4.75v-2.46a5.2,5.2,0,0,0-4.18-1.72c-2.06,0-3.74,1.06-3.74,3s1.68,2.91,3.74,2.91A5.23,5.23,0,0,0,366.1,247.28Z" transform="translate(-93.54 -100.28)"></path><path class="cls-2" d="M376.49,252V224.72h5.21v10.07a7.64,7.64,0,0,1,6.12-3c5.05,0,8.78,3.93,8.78,10.4s-3.77,10.36-8.78,10.36a7.73,7.73,0,0,1-6.12-3V252Zm9.69-4.14c3,0,5-2.29,5-5.73s-2-5.78-5-5.78a5.76,5.76,0,0,0-4.48,2.3v7A5.8,5.8,0,0,0,386.18,247.89Z" transform="translate(-93.54 -100.28)"></path><path class="cls-2" d="M400.54,252V224.72h5.22V252Z" transform="translate(-93.54 -100.28)"></path><path class="cls-2" d="M409.65,242.12a10.08,10.08,0,0,1,10.27-10.36c5.91,0,9.93,4.42,9.93,10.89v1.15H415.11c.33,2.49,2.34,4.58,5.71,4.58a8.48,8.48,0,0,0,5.3-2l2.3,3.35a12.38,12.38,0,0,1-8.17,2.75C414.21,252.52,409.65,248.46,409.65,242.12Zm10.27-6.23a4.77,4.77,0,0,0-4.89,4.39h9.77A4.58,4.58,0,0,0,419.92,235.89Z" transform="translate(-93.54 -100.28)"></path><path class="cls-2" d="M457.76,252v-2.54a7.71,7.71,0,0,1-6.11,3c-5,0-8.79-3.77-8.79-10.36s3.74-10.4,8.79-10.4a7.62,7.62,0,0,1,6.11,3V224.72H463V252Zm0-6.39v-7a5.68,5.68,0,0,0-4.51-2.26c-3,0-5,2.34-5,5.78s2.05,5.73,5,5.73A5.67,5.67,0,0,0,457.76,245.64Z" transform="translate(-93.54 -100.28)"></path><path class="cls-2" d="M466.92,242.12a10.07,10.07,0,0,1,10.26-10.36c5.91,0,9.93,4.42,9.93,10.89v1.15H472.38c.32,2.49,2.34,4.58,5.7,4.58a8.44,8.44,0,0,0,5.3-2l2.3,3.35a12.34,12.34,0,0,1-8.17,2.75C471.47,252.52,466.92,248.46,466.92,242.12Zm10.26-6.23a4.77,4.77,0,0,0-4.89,4.39h9.77A4.58,4.58,0,0,0,477.18,235.89Z" transform="translate(-93.54 -100.28)"></path><path class="cls-2" d="M506.53,252l-8-19.78h5.59L509.32,246l5.17-13.76h5.63l-8,19.78Z" transform="translate(-93.54 -100.28)"></path><path class="cls-2" d="M521.18,242.12a10.49,10.49,0,1,1,10.47,10.4A10,10,0,0,1,521.18,242.12Zm15.56,0c0-3.07-1.85-5.74-5.09-5.74s-5,2.67-5,5.74,1.81,5.77,5,5.77S536.74,245.23,536.74,242.12Z" transform="translate(-93.54 -100.28)"></path><path class="cls-2" d="M547,247.11V236.79h-3.28v-4.54H547v-5.41h5.26v5.41h4v4.54h-4v8.93c0,1.23.65,2.17,1.8,2.17a2.91,2.91,0,0,0,1.81-.57l1.11,3.93a6.49,6.49,0,0,1-4.35,1.27C549,252.52,547,250.63,547,247.11Z" transform="translate(-93.54 -100.28)"></path><path class="cls-2" d="M559.89,252V232.25h5.21V235a8.54,8.54,0,0,1,6.32-3.19v5.08a6.28,6.28,0,0,0-1.43-.13A6.68,6.68,0,0,0,565.1,239V252Z" transform="translate(-93.54 -100.28)"></path><path class="cls-2" d="M573.39,242.12a10.08,10.08,0,0,1,10.27-10.36c5.91,0,9.93,4.42,9.93,10.89v1.15H578.85c.33,2.49,2.34,4.58,5.71,4.58a8.48,8.48,0,0,0,5.3-2l2.29,3.35a12.33,12.33,0,0,1-8.16,2.75C578,252.52,573.39,248.46,573.39,242.12Zm10.27-6.23a4.77,4.77,0,0,0-4.89,4.39h9.77A4.58,4.58,0,0,0,583.66,235.89Z" transform="translate(-93.54 -100.28)"></path><path class="cls-2" d="M632.46,252V239.54c0-1.84-.82-3.16-3-3.16a5.26,5.26,0,0,0-4.11,2.3V252h-5.25V239.54c0-1.84-.82-3.16-3-3.16a5.32,5.32,0,0,0-4.1,2.34V252h-5.22V232.25h5.22v2.58a8.67,8.67,0,0,1,6.48-3.07c2.92,0,4.77,1.35,5.51,3.6a8.4,8.4,0,0,1,6.81-3.6c3.65,0,5.83,1.92,5.83,6V252Z" transform="translate(-93.54 -100.28)"></path><path class="cls-2" d="M654.75,252V250a8.19,8.19,0,0,1-6.28,2.54c-3.16,0-6.9-2.13-6.9-6.55,0-4.63,3.74-6.39,6.9-6.39a8.14,8.14,0,0,1,6.28,2.42v-2.67c0-2-1.72-3.31-4.35-3.31a8.34,8.34,0,0,0-5.79,2.33l-2-3.48a13,13,0,0,1,8.66-3.11c4.52,0,8.67,1.8,8.67,7.49V252Zm0-4.75v-2.46a5.2,5.2,0,0,0-4.19-1.72c-2,0-3.73,1.06-3.73,3s1.68,2.91,3.73,2.91A5.24,5.24,0,0,0,654.75,247.28Z" transform="translate(-93.54 -100.28)"></path><path class="cls-2" d="M664.6,227a3.11,3.11,0,0,1,3.12-3.07,3.08,3.08,0,0,1,3.12,3.07,3.11,3.11,0,0,1-3.12,3.11A3.14,3.14,0,0,1,664.6,227Zm.54,25V232.25h5.21V252Z" transform="translate(-93.54 -100.28)"></path><path class="cls-2" d="M673.8,249.45l2.25-3.65a11.41,11.41,0,0,0,6.86,2.71c2.26,0,3.33-.91,3.33-2.13,0-3.28-11.79-.62-11.79-8.4,0-3.32,2.92-6.22,8.13-6.22a12.67,12.67,0,0,1,8,2.7l-2.1,3.56a8.36,8.36,0,0,0-5.87-2.29c-1.89,0-3.12.86-3.12,2,0,2.94,11.74.49,11.74,8.47,0,3.6-3.08,6.35-8.58,6.35A13.38,13.38,0,0,1,673.8,249.45Z" transform="translate(-93.54 -100.28)"></path><path class="cls-2" d="M693.83,242.12a10.49,10.49,0,1,1,10.47,10.4A10,10,0,0,1,693.83,242.12Zm15.56,0c0-3.07-1.85-5.74-5.09-5.74s-5,2.67-5,5.74,1.8,5.77,5,5.77S709.39,245.23,709.39,242.12Z" transform="translate(-93.54 -100.28)"></path><path class="cls-2" d="M732,252v-12c0-2.74-1.43-3.69-3.65-3.69a5.64,5.64,0,0,0-4.51,2.34V252h-5.22V232.25h5.22v2.58a9.05,9.05,0,0,1,6.93-3.07c4.36,0,6.45,2.45,6.45,6.3v14Z" transform="translate(-93.54 -100.28)"></path></svg> 